<svg width="16" height="8" viewBox="0 0 16 8" fill="none" xmlns="http://www.w3.org/2000/svg">
<path d="M3.8657 0.886441C3.664 0.694349 3.3952 0.588724 3.11669 0.59212C2.83818 0.595516 2.57203 0.707664 2.37508 0.904617C2.17812 1.10157 2.06598 1.36772 2.06258 1.64623C2.05918 1.92474 2.16481 2.19354 2.3569 2.39524L6.9361 6.97444C7.07608 7.11459 7.24231 7.22578 7.4253 7.30163C7.60828 7.37749 7.80442 7.41654 8.0025 7.41654C8.20058 7.41654 8.39672 7.37749 8.5797 7.30163C8.76269 7.22578 8.92892 7.11459 9.0689 6.97444L13.6465 2.39524C13.8386 2.19354 13.9442 1.92474 13.9408 1.64623C13.9374 1.36772 13.8253 1.10157 13.6283 0.904617C13.4314 0.707664 13.1652 0.595516 12.8867 0.59212C12.6082 0.588724 12.3394 0.694349 12.1377 0.886441L8.0017 5.01924L3.8657 0.886441Z" fill="#6E6E6E"/>
</svg>
