<svg width="189" height="147" viewBox="0 0 189 147" fill="none" xmlns="http://www.w3.org/2000/svg">
<path d="M177.007 0.681641C174.692 0.45223 171.901 0.463731 168.521 0.583984C161.776 0.823949 152.722 1.49708 140.681 1.49707H121.012C114.082 1.50555 107.577 4.36281 103.452 9.20703L103.438 9.22363L103.422 9.23926L99.2354 13.3564C96.8563 15.6957 93.652 17.0063 90.3154 17.0049C85.5015 17.0029 81.4646 16.9993 76.1338 17.0059H48.2988C36.212 17.0059 27.1884 17.0067 20.4297 17.7422C13.6664 18.4782 9.28041 19.9414 6.38574 22.7764C3.49321 25.6093 2.00105 29.8995 1.25 36.5195C0.593098 42.3098 0.510411 49.7988 0.5 59.5117L0.498047 63.8115L0.773438 106.692V106.695C0.773437 118.994 0.757613 127.489 1.60352 133.347C2.44738 139.19 4.12694 142.249 7.38477 143.87C9.04417 144.696 11.1524 145.17 13.8516 145.403C16.5493 145.636 19.8032 145.627 23.7393 145.509C31.5979 145.273 42.1459 144.602 56.207 144.602H132.744C146.768 144.602 157.305 145.273 165.169 145.509C169.108 145.627 172.368 145.636 175.075 145.403C177.783 145.17 179.903 144.696 181.575 143.87C184.86 142.248 186.568 139.187 187.435 133.345C188.304 127.488 188.305 118.994 188.305 106.695V39.3252C188.305 27.0402 188.303 18.5503 187.557 12.6963C186.809 6.83863 185.334 3.79239 182.541 2.19141C181.123 1.37863 179.321 0.911073 177.007 0.681641Z" fill="url(#paint0_linear_1048_3754)" stroke="#212121"/>
<defs>
<linearGradient id="paint0_linear_1048_3754" x1="109.5" y1="-7" x2="108" y2="195.5" gradientUnits="userSpaceOnUse">
<stop stop-color="#343434"/>
<stop offset="1" stop-color="#161616"/>
</linearGradient>
</defs>
</svg>
