<svg width="16" height="22" viewBox="0 0 16 22" fill="none" xmlns="http://www.w3.org/2000/svg">
<path d="M3.8657 14.8862C3.664 14.6941 3.3952 14.5885 3.11669 14.5919C2.83818 14.5953 2.57203 14.7074 2.37508 14.9044C2.17812 15.1013 2.06598 15.3675 2.06258 15.646C2.05918 15.9245 2.16481 16.1933 2.3569 16.395L6.9361 20.9742C7.07608 21.1143 7.24231 21.2255 7.4253 21.3014C7.60828 21.3772 7.80442 21.4163 8.0025 21.4163C8.20058 21.4163 8.39672 21.3772 8.5797 21.3014C8.76269 21.2255 8.92892 21.1143 9.0689 20.9742L13.6465 16.395C13.8386 16.1933 13.9442 15.9245 13.9408 15.646C13.9374 15.3675 13.8253 15.1013 13.6283 14.9044C13.4314 14.7074 13.1652 14.5953 12.8867 14.5919C12.6082 14.5885 12.3394 14.6941 12.1377 14.8862L8.0017 19.019L3.8657 14.8862Z" fill="#6E6E6E"/>
<path d="M3.8657 7.1138C3.664 7.30589 3.3952 7.41152 3.11669 7.40812C2.83818 7.40473 2.57203 7.29258 2.37508 7.09563C2.17812 6.89867 2.06598 6.63253 2.06258 6.35401C2.05918 6.0755 2.16481 5.8067 2.3569 5.605L6.9361 1.0258C7.07608 0.885652 7.24231 0.774468 7.4253 0.69861C7.60828 0.622751 7.80442 0.583706 8.0025 0.583706C8.20058 0.583706 8.39672 0.622751 8.5797 0.69861C8.76269 0.774468 8.92892 0.885652 9.0689 1.0258L13.6465 5.605C13.8386 5.8067 13.9442 6.0755 13.9408 6.35401C13.9374 6.63253 13.8253 6.89867 13.6283 7.09563C13.4314 7.29258 13.1652 7.40473 12.8867 7.40812C12.6082 7.41152 12.3394 7.30589 12.1377 7.1138L8.0017 2.981L3.8657 7.1138Z" fill="#6E6E6E"/>
</svg>
