<svg width="20" height="20" viewBox="0 0 20 20" fill="none" xmlns="http://www.w3.org/2000/svg">
<path d="M5.83463 5.83333H13.9596C15.7152 5.83333 16.593 5.83333 17.2236 6.25466C17.4965 6.43706 17.7309 6.67143 17.9133 6.94441C18.3346 7.57497 18.3346 8.45276 18.3346 10.2083C18.3346 13.1343 18.3346 14.5973 17.6324 15.6482C17.3284 16.1032 16.9378 16.4938 16.4828 16.7978C15.4319 17.5 13.9689 17.5 11.043 17.5H10.0013C6.07293 17.5 4.10875 17.5 2.88836 16.2796C1.66797 15.0592 1.66797 13.095 1.66797 9.16667V6.62023C1.66797 5.1065 1.66797 4.34964 1.9849 3.78172C2.21082 3.37689 2.54486 3.04285 2.94969 2.81693C3.5176 2.5 4.27447 2.5 5.78819 2.5C6.75799 2.5 7.24288 2.5 7.66735 2.65917C8.63649 3.0226 9.03612 3.90298 9.47344 4.7776L10.0013 5.83333" stroke="#797979" stroke-width="1.25" stroke-linecap="round"/>
</svg>
