<svg width="20" height="20" viewBox="0 0 20 20" fill="none" xmlns="http://www.w3.org/2000/svg">
<path d="M10.745 2.34168L17.9076 7.99639C18.1773 8.20929 18.3346 8.53391 18.3346 8.8775C18.3346 9.49758 17.8321 10.0002 17.212 10.0002H16.668V12.9168C16.668 15.2738 16.668 16.4523 15.9357 17.1846C15.2035 17.9168 14.025 17.9168 11.668 17.9168H8.33464C5.97761 17.9168 4.7991 17.9168 4.06687 17.1846C3.33464 16.4523 3.33464 15.2738 3.33464 12.9168V10.0002H2.7906C2.17059 10.0002 1.66797 9.49758 1.66797 8.8775C1.66797 8.53391 1.8253 8.20929 2.09497 7.99639L9.25764 2.34168C9.46939 2.17445 9.73139 2.0835 10.0013 2.0835C10.2712 2.0835 10.5332 2.17445 10.745 2.34168Z" stroke="#797979" stroke-width="1.25" stroke-linecap="round" stroke-linejoin="round"/>
<path d="M12.0846 17.9168V14.1668C12.0846 13.388 12.0846 12.9986 11.9171 12.7085C11.8075 12.5185 11.6496 12.3607 11.4596 12.251C11.1696 12.0835 10.7801 12.0835 10.0013 12.0835C9.22247 12.0835 8.83305 12.0835 8.54297 12.251C8.35297 12.3607 8.19514 12.5185 8.08544 12.7085C7.91797 12.9986 7.91797 13.388 7.91797 14.1668V17.9168" stroke="#797979" stroke-width="1.25" stroke-linecap="round" stroke-linejoin="round"/>
</svg>
