<svg width="20" height="20" viewBox="0 0 20 20" fill="none" xmlns="http://www.w3.org/2000/svg">
<path d="M7.97963 5L8.37504 7.4006C8.7287 9.54771 10.4115 11.2305 12.5586 11.5842L14.9593 11.9796L12.5586 12.375C10.4115 12.7287 8.7287 14.4115 8.37504 16.5586L7.97963 18.9593L7.58421 16.5586C7.23055 14.4115 5.54771 12.7287 3.4006 12.375L1 11.9796L3.4006 11.5842C5.54771 11.2305 7.23055 9.54771 7.58421 7.4006L7.97963 5Z" fill="#797979"/>
<path d="M15.5 2L15.6983 3.20381C15.8756 4.28049 16.7195 5.12437 17.7962 5.30171L19 5.5L17.7962 5.69829C16.7195 5.87563 15.8756 6.71951 15.6983 7.79619L15.5 9L15.3017 7.79619C15.1244 6.71951 14.2805 5.87563 13.2038 5.69829L12 5.5L13.2038 5.30171C14.2805 5.12437 15.1244 4.28049 15.3017 3.20381L15.5 2Z" fill="#797979"/>
</svg>
