<svg width="14" height="7" viewBox="0 0 14 7" fill="none" xmlns="http://www.w3.org/2000/svg">
<path d="M3.38249 6.22433C3.206 6.39241 2.9708 6.48484 2.7271 6.48186C2.4834 6.47889 2.25052 6.38076 2.07819 6.20843C1.90586 6.0361 1.80773 5.80322 1.80476 5.55952C1.80179 5.31582 1.89421 5.08062 2.06229 4.90413L6.06909 0.897334C6.19157 0.774702 6.33702 0.677416 6.49713 0.61104C6.65724 0.544663 6.82887 0.510499 7.00219 0.510499C7.17551 0.510499 7.34713 0.544663 7.50724 0.61104C7.66735 0.677416 7.8128 0.774702 7.93529 0.897334L11.9407 4.90413C12.1088 5.08062 12.2012 5.31582 12.1982 5.55952C12.1952 5.80322 12.0971 6.0361 11.9248 6.20843C11.7525 6.38076 11.5196 6.47889 11.2759 6.48186C11.0322 6.48484 10.797 6.39241 10.6205 6.22433L7.00149 2.60813L3.38249 6.22433Z" fill="white"/>
</svg>
