<svg width="20" height="20" viewBox="0 0 20 20" fill="none" xmlns="http://www.w3.org/2000/svg">
<path d="M17.7633 5.95132L17.3519 5.23749C17.0409 4.69763 16.8853 4.4277 16.6207 4.32006C16.356 4.21243 16.0567 4.29736 15.4581 4.46723L14.4413 4.75365C14.0591 4.84178 13.6581 4.79178 13.3092 4.61249L13.0284 4.45051C12.7292 4.25886 12.499 3.97627 12.3716 3.64412L12.0933 2.81296C11.9104 2.26294 11.8189 1.98794 11.6011 1.83064C11.3832 1.67334 11.0939 1.67334 10.5153 1.67334H9.58631C9.00768 1.67334 8.71836 1.67334 8.50055 1.83064C8.28274 1.98794 8.19125 2.26294 8.00827 2.81296L7.72997 3.64412C7.60257 3.97627 7.37241 4.25886 7.07317 4.45051L6.79244 4.61249C6.44348 4.79178 6.04252 4.84178 5.66035 4.75365L4.64349 4.46723C4.04488 4.29736 3.74557 4.21243 3.48092 4.32006C3.21628 4.4277 3.06074 4.69763 2.74966 5.23749L2.33834 5.95132C2.04674 6.45737 1.90095 6.71039 1.92925 6.97974C1.95754 7.24909 2.15272 7.46614 2.54308 7.90026L3.40228 8.86085C3.61228 9.1267 3.76137 9.59001 3.76137 10.0065C3.76137 10.4233 3.61233 10.8865 3.4023 11.1524L2.54308 12.113C2.15273 12.5471 1.95754 12.7642 1.92925 13.0335C1.90095 13.3029 2.04675 13.5559 2.33834 14.062L2.74965 14.7758C3.06072 15.3156 3.21628 15.5856 3.48092 15.6932C3.74557 15.8008 4.04488 15.7159 4.6435 15.546L5.66031 15.2596C6.04255 15.1714 6.44359 15.2215 6.79259 15.4008L7.07328 15.5628C7.37245 15.7545 7.60257 16.037 7.72995 16.3691L8.00827 17.2004C8.19125 17.7504 8.28274 18.0254 8.50055 18.1827C8.71836 18.34 9.00768 18.34 9.58631 18.34H10.5153C11.0939 18.34 11.3832 18.34 11.6011 18.1827C11.8189 18.0254 11.9104 17.7504 12.0933 17.2004L12.3717 16.3691C12.499 16.037 12.7291 15.7545 13.0283 15.5628L13.309 15.4008C13.658 15.2215 14.059 15.1714 14.4413 15.2596L15.4581 15.546C16.0567 15.7159 16.356 15.8008 16.6207 15.6932C16.8853 15.5856 17.0409 15.3156 17.352 14.7758L17.352 14.7758L17.7633 14.062C18.0549 13.5559 18.2007 13.3029 18.1724 13.0335C18.1441 12.7642 17.9489 12.5471 17.5585 12.113L16.6993 11.1524C16.4893 10.8865 16.3402 10.4233 16.3402 10.0065C16.3402 9.59001 16.4893 9.1267 16.6993 8.86085L17.5585 7.90026C17.9489 7.46614 18.1441 7.24909 18.1724 6.97974C18.2007 6.71039 18.0549 6.45737 17.7633 5.95132Z" stroke="#797979" stroke-width="1.25" stroke-linecap="round"/>
<path d="M12.931 10.0002C12.931 11.611 11.6252 12.9168 10.0143 12.9168C8.40349 12.9168 7.09766 11.611 7.09766 10.0002C7.09766 8.38933 8.40349 7.0835 10.0143 7.0835C11.6252 7.0835 12.931 8.38933 12.931 10.0002Z" stroke="#797979" stroke-width="1.25"/>
</svg>
