<svg width="20" height="20" viewBox="0 0 20 20" fill="none" xmlns="http://www.w3.org/2000/svg">
<path d="M16.6654 13.3332V6.6665C16.6654 4.30948 16.6654 3.13097 15.9331 2.39874C15.2009 1.6665 14.0224 1.6665 11.6654 1.6665H8.33203C5.97501 1.6665 4.7965 1.6665 4.06426 2.39874C3.33203 3.13097 3.33203 4.30948 3.33203 6.6665V13.3332C3.33203 15.6902 3.33203 16.8687 4.06426 17.6009C4.7965 18.3332 5.97501 18.3332 8.33203 18.3332H11.6654C14.0224 18.3332 15.2009 18.3332 15.9331 17.6009C16.6654 16.8687 16.6654 15.6902 16.6654 13.3332Z" stroke="white" stroke-width="1.25" stroke-linecap="round" stroke-linejoin="round"/>
<path d="M12.9154 1.6665H7.08203C7.08203 2.84501 7.08203 3.43427 7.44815 3.80039C7.81426 4.1665 8.40353 4.1665 9.58203 4.1665H10.4154C11.5939 4.1665 12.1831 4.1665 12.5493 3.80039C12.9154 3.43427 12.9154 2.84501 12.9154 1.6665Z" stroke="white" stroke-width="1.25" stroke-linecap="round" stroke-linejoin="round"/>
<path d="M6.25 9.1665L7.08333 9.99984L8.75 7.9165" stroke="white" stroke-width="1.25" stroke-linecap="round" stroke-linejoin="round"/>
<path d="M10.832 14.1665H13.332M10.832 9.1665H13.332" stroke="white" stroke-width="1.25" stroke-linecap="round" stroke-linejoin="round"/>
<path d="M7.07422 14.0562H7.08297" stroke="white" stroke-width="1.66667" stroke-linecap="round" stroke-linejoin="round"/>
</svg>
