<svg width="39" height="39" viewBox="0 0 39 39" fill="none" xmlns="http://www.w3.org/2000/svg">
<g clip-path="url(#clip0_1384_3549)">
<path d="M38.0859 19.0431C38.0859 25.0826 35.2745 30.4654 30.8887 33.954C27.6374 36.541 23.5214 38.0859 19.0431 38.0859C14.5647 38.0859 10.4487 36.541 7.19723 33.954C2.81163 30.4654 0 25.0826 0 19.0431C0 8.52604 8.52623 0 19.0431 0C29.5599 0 38.0859 8.52604 38.0859 19.0431Z" fill="#EEEEEE"/>
<path d="M19.0416 25.1134C23.129 25.1134 26.4425 21.7999 26.4425 17.7125C26.4425 13.625 23.129 10.3115 19.0416 10.3115C14.9541 10.3115 11.6406 13.625 11.6406 17.7125C11.6406 21.7999 14.9541 25.1134 19.0416 25.1134Z" fill="#8E8D8D"/>
<path d="M30.8868 33.954C27.6354 36.541 23.5195 38.086 19.0411 38.086C14.5628 38.086 10.4468 36.541 7.19531 33.954C9.57626 30.4562 13.9901 28.1072 19.0411 28.1072C24.0921 28.1072 28.5064 30.4557 30.8868 33.954Z" fill="#8E8D8D"/>
</g>
<defs>
<clipPath id="clip0_1384_3549">
<rect width="38.0859" height="38.0859" fill="white"/>
</clipPath>
</defs>
</svg>
